<?xml version="1.0" encoding="utf-8"?>
<!-- Svg Vector Icons : http://www.onlinewebfonts.com/icon -->
<!DOCTYPE svg PUBLIC "-//W3C//DTD SVG 1.1//EN" "http://www.w3.org/Graphics/SVG/1.1/DTD/svg11.dtd">
<svg version="1.1" xmlns="http://www.w3.org/2000/svg" xmlns:xlink="http://www.w3.org/1999/xlink" x="0px" y="0px" viewBox="0 0 1000 1000" enable-background="new 0 0 1000 1000" xml:space="preserve">
<metadata> Svg Vector Icons : http://www.onlinewebfonts.com/icon </metadata>
<g><path fill = '#FAEF87' d="M500,10C229.8,10,10,229.8,10,500c0,270.2,219.8,490,490,490c270.2,0,490-219.8,490-490C990,229.8,770.2,10,500,10L500,10z M500,906.3C276,906.3,93.7,724,93.7,500C93.7,276,276,93.7,500,93.7C724,93.7,906.3,276,906.3,500C906.3,724,724,906.3,500,906.3L500,906.3z M325.3,500c-19.4,0-35.1,15.6-35.1,35s15.7,35,35.1,35h210c19.4,0,35-15.6,35-35V255.1c0-19.4-15.6-35.1-35-35.1c-19.4,0-35,15.7-35,35.1V500L325.3,500L325.3,500z"/></g>
</svg>