<svg id="Layer_1" data-name="Layer 1" xmlns="http://www.w3.org/2000/svg" viewBox="0 0 40 40"><defs><style>.cls-1{fill:#b22326;}</style></defs><title>Artboard 7</title><path class="cls-1" d="M34.55,9.19H5.68a5.09,5.09,0,0,0-5,5.21V28.78a5.15,5.15,0,0,0,5,5.21H34.55a5.09,5.09,0,0,0,5-5.21V14.4A5.09,5.09,0,0,0,34.55,9.19ZM20.16,31.34a9.7,9.7,0,0,1-9.46-9.84,9.7,9.7,0,0,1,9.46-9.84,9.7,9.7,0,0,1,9.46,9.84A9.64,9.64,0,0,1,20.16,31.34Z"/><rect class="cls-1" x="5.58" y="7.39" width="5.21" height="3.98"/><rect class="cls-1" x="14.48" y="6.45" width="11.26" height="3.98"/><rect class="cls-1" x="22.9" y="24.14" width="1.51" height="7.29"/><rect class="cls-1" x="15.9" y="24.14" width="1.51" height="7.29"/><ellipse class="cls-1" cx="23.66" cy="19.6" rx="3.31" ry="4.92"/><path class="cls-1" d="M18.17,22.06a.45.45,0,0,0,.47.47h0a.45.45,0,0,0,.47-.47V15.34a.45.45,0,0,0-.47-.47h0a.45.45,0,0,0-.47.47Z"/><path class="cls-1" d="M16.37,22.06a.45.45,0,0,0,.47.47h0a.45.45,0,0,0,.47-.47V15.34a.45.45,0,0,0-.47-.47h0a.45.45,0,0,0-.47.47Z"/><path class="cls-1" d="M14.29,22.06a.45.45,0,0,0,.47.47h0a.45.45,0,0,0,.47-.47V15.34a.45.45,0,0,0-.47-.47h0a.45.45,0,0,0-.47.47Z"/><path class="cls-1" d="M14.29,22.25a2.37,2.37,0,0,0,4.73,0C19,21,14.29,21,14.29,22.25Z"/></svg>