<?xml version="1.0" encoding="UTF-8" standalone="no"?>
<svg
   xmlns:dc="http://purl.org/dc/elements/1.1/"
   xmlns:cc="http://creativecommons.org/ns#"
   xmlns:rdf="http://www.w3.org/1999/02/22-rdf-syntax-ns#"
   xmlns:svg="http://www.w3.org/2000/svg"
   xmlns="http://www.w3.org/2000/svg"
   xmlns:sodipodi="http://sodipodi.sourceforge.net/DTD/sodipodi-0.dtd"
   xmlns:inkscape="http://www.inkscape.org/namespaces/inkscape"
   id="svg894"
   version="1.1"
   viewBox="0 0 108.47916 111.125"
   height="420"
   width="410"
   sodipodi:docname="kitchen helperLogo.svg"
   inkscape:version="0.92.2 5c3e80d, 2017-08-06">
  <sodipodi:namedview
     pagecolor="#ffffff"
     bordercolor="#666666"
     borderopacity="1"
     objecttolerance="10"
     gridtolerance="10"
     guidetolerance="10"
     inkscape:pageopacity="0"
     inkscape:pageshadow="2"
     inkscape:window-width="1082"
     inkscape:window-height="821"
     id="namedview38"
     showgrid="false"
     units="px"
     inkscape:zoom="1"
     inkscape:cx="156.85039"
     inkscape:cy="161.25984"
     inkscape:window-x="0"
     inkscape:window-y="0"
     inkscape:window-maximized="0"
     inkscape:current-layer="svg894" />
  <defs
     id="defs888" />
  <metadata
     id="metadata891">
    <rdf:RDF>
      <cc:Work
         rdf:about="">
        <dc:format>image/svg+xml</dc:format>
        <dc:type
           rdf:resource="http://purl.org/dc/dcmitype/StillImage" />
        <dc:title></dc:title>
      </cc:Work>
    </rdf:RDF>
  </metadata>
  <g
     id="layer1"
     transform="translate(312.29502,-232.503)">
    <g
       id="g1126"
       transform="matrix(0.47529036,0,0,0.47529036,-207.71319,218.47389)"
       style="fill:#483e37;fill-opacity:1;stroke-width:2.10397696">
      <path
         id="path1116"
         transform="scale(0.26458333)"
         d="m -589.89453,345.08203 v 4.99609 75 h -176.35352 l 1.49219,6.17969 27.71875,114.82422 -29.21094,120.99805 h 176.35352 v 77.8789 l 200.99414,116.90625 201.00195,-116.90625 v -77.8789 H -11.544922 L -40.755859,546.08203 -11.544922,425.07812 h -6.349609 -170.003909 v -79.99609 z m 9.99609,10.00195 h 382.00391 v 384.12305 l -69.78711,40.58789 -121.21484,-70.50195 -121.2168,70.50391 -69.78516,-40.58985 z m 300.77149,11.26563 c -0.54423,0.0132 -1.09235,0.0543 -1.64063,0.12695 -4.38619,0.58153 -8.81886,2.94191 -12.88281,7.00586 l -76.86133,76.86133 c -11.7004,11.7004 -12.9575,28.8563 -11.80078,42.58789 0.8948,10.62282 2.95871,17.96229 4.03516,21.5 -0.41284,0.36262 -6.72059,5.93416 -9.40625,8.29883 -11.64569,-10.53322 -20.79495,-18.77891 -21.64649,-19.54492 8.06952,-28.23013 4.1616,-54.98248 -8.99414,-77.2168 -13.67716,-23.11563 -36.7845,-41.44699 -65.32031,-52.90625 l -0.44336,-0.18359 -0.4707,-0.084 c -20.42136,-3.9328 -40.60928,9.21862 -53.97657,22.58594 -13.36732,13.36728 -26.51872,33.55716 -22.58593,53.97852 l 0.0117,0.084 0.0195,0.082 c 5.5466,24.38328 24.91273,47.43403 49.75976,62.38281 23.84017,14.34297 53.07053,20.82792 80.52539,12.64649 0.70343,0.80732 8.74467,10.00647 17.91797,20.46679 -43.8314,38.88224 -117.66818,104.96314 -151.0957,138.39063 -4.72585,4.72585 -5.85473,11.35456 -4.60938,17.12695 1.24543,5.77244 4.48248,11.07867 8.64453,15.43946 4.16198,4.36085 9.27522,7.82213 14.95899,9.25 5.68377,1.4279 12.35423,0.3724 17.08008,-4.35352 33.0059,-33.0059 98.92074,-105.24 138.60742,-149.05664 40.25159,45.57279 99.57661,111.97114 130.78125,143.17578 4.80243,4.80242 11.54734,5.90191 17.37695,4.53516 5.82961,-1.36676 11.15311,-4.78593 15.50196,-9.13477 4.34883,-4.34884 7.76215,-9.66651 9.1289,-15.49609 1.36675,-5.82962 0.2712,-12.5804 -4.53125,-17.38282 -31.51599,-31.51597 -98.16281,-92.60491 -143.15234,-133.48828 1.88064,-2.09041 7.0275,-7.79435 7.34375,-8.14648 3.51841,1.07195 10.87706,3.14192 21.52734,4.03906 13.73156,1.15673 30.89337,-0.0966 42.59375,-11.79687 l 76.86133,-76.86133 c 4.06395,-4.06394 6.42239,-8.4966 7.00391,-12.88281 0.58151,-4.38622 -0.76176,-8.72856 -3.6836,-11.65039 -2.92184,-2.92184 -7.26613,-4.26512 -11.65234,-3.6836 -4.38621,0.58152 -8.81692,2.93997 -12.88086,7.00391 -20.77329,20.7733 -46.15879,46.15881 -69.24024,69.24023 -2.86046,2.86046 -5.39735,3.93112 -7.125,4.16016 -1.72766,0.22904 -2.64995,-0.22626 -3.26367,-0.83984 -0.61369,-0.61372 -1.0746,-1.54004 -0.8457,-3.26758 0.22904,-1.72763 1.29969,-4.26454 4.16016,-7.125 l 69.24023,-69.24024 c 4.06395,-4.06393 6.42433,-8.49659 7.00586,-12.88281 0.5815,-4.38622 -0.76372,-8.72855 -3.68555,-11.65039 -2.92184,-2.92184 -7.26419,-4.2671 -11.65039,-3.68555 -4.38622,0.58148 -8.81886,2.94189 -12.88281,7.00586 -23.08148,23.08143 -46.15883,46.15877 -69.24024,69.24024 -2.86044,2.86046 -5.39151,3.93502 -7.11914,4.16406 -1.72765,0.22904 -2.65388,-0.23217 -3.26757,-0.8457 -0.6137,-0.61369 -1.07464,-1.54007 -0.84571,-3.26758 0.22904,-1.72762 1.3036,-4.25868 4.16407,-7.11914 23.08146,-23.08143 46.16076,-46.15878 69.24218,-69.24024 4.06396,-4.06397 6.42241,-8.49659 7.00391,-12.88281 0.58153,-4.38619 -0.7637,-8.72854 -3.68555,-11.65039 -2.55659,-2.55659 -6.2002,-3.9047 -10.00976,-3.8125 z m 0.28125,9.98437 c 1.34308,-0.0568 2.11926,0.36342 2.65625,0.9004 0.61372,0.61369 1.06889,1.53604 0.83984,3.26367 -0.22904,1.72769 -1.29967,4.26454 -4.16016,7.125 -23.08142,23.0815 -46.15877,46.15885 -69.24023,69.24023 -4.06393,4.06394 -6.42236,8.4966 -7.00391,12.88281 -0.58151,4.38618 0.76761,8.72268 3.68946,11.64453 2.92184,2.92184 7.2603,4.27293 11.64648,3.69141 4.38621,-0.58152 8.81693,-2.94192 12.88086,-7.00586 23.08141,-23.08146 46.15877,-46.15881 69.24023,-69.24023 2.86048,-2.86046 5.39735,-3.93112 7.125,-4.16016 1.72766,-0.22904 2.64996,0.22622 3.26368,0.83984 0.61369,0.61369 1.07472,1.53992 0.8457,3.26758 -0.22904,1.72766 -1.29967,4.26451 -4.16016,7.125 l -69.24023,69.24024 c -4.06393,4.0639 -6.42432,8.49659 -7.00586,12.88281 -0.58149,4.38622 0.76958,8.72465 3.69141,11.64648 2.92184,2.92184 7.25833,4.27098 11.64453,3.68946 4.38622,-0.58152 8.81888,-2.94192 12.88281,-7.00586 23.08144,-23.08143 48.46695,-48.46693 69.24023,-69.24024 2.86049,-2.86049 5.39149,-3.93502 7.11915,-4.16406 1.72763,-0.22904 2.65388,0.23217 3.26757,0.8457 0.6137,0.61369 1.07475,1.53992 0.84571,3.26758 -0.22904,1.72766 -1.30359,4.25865 -4.16407,7.11914 l -76.86132,76.86133 c -8.38047,8.38046 -22.32641,9.94503 -34.68165,8.9043 -12.35519,-1.04081 -22.37109,-4.45703 -22.37109,-4.45703 l -3.13281,-1.06446 -2.20703,2.45899 c 0,0 -6.35031,7.03886 -9.39844,10.42383 -2.93674,-2.66477 -5.96783,-5.41822 -8.63867,-7.83789 3.67419,-3.23784 10.91211,-9.62891 10.91211,-9.62891 l 2.51562,-2.21289 -1.08008,-3.16797 c 0,0 -3.4221,-10.02172 -4.46289,-22.37695 -1.04076,-12.35524 0.52384,-26.30118 8.9043,-34.68164 l 76.86133,-76.86133 c 2.86048,-2.86047 5.39735,-3.9311 7.125,-4.16016 0.21596,-0.0286 0.41946,-0.0466 0.61133,-0.0547 z m -212.18555,5.88282 c 1.43325,0.0251 2.84583,0.15549 4.23047,0.40234 26.55881,10.79221 47.62493,27.74238 59.87109,48.43945 12.33846,20.85306 15.98654,45.42909 7.375,72.4043 l -0.98633,3.07422 2.4004,2.16016 c 0,0 140.86656,126.72985 190.02734,175.89062 2.26863,2.26862 2.6679,4.62232 1.86914,8.0293 -0.79876,3.40698 -3.2162,7.45253 -6.46875,10.70508 -3.25256,3.25254 -7.30395,5.67392 -10.71094,6.47265 -3.40698,0.79877 -5.75285,0.39557 -8.02148,-1.87304 -49.05976,-49.05975 -173.72071,-192.08399 -173.72071,-192.08399 l -2.21875,-2.54101 -3.18945,1.10156 c -24.95535,8.65874 -52.72456,2.70809 -75.60351,-11.05664 -22.84264,-13.74282 -40.38037,-35.25856 -45.125,-55.93946 -2.81605,-14.82088 7.83355,-32.95074 19.83593,-44.95312 10.80975,-10.80975 26.58076,-20.47487 40.43555,-20.23242 z m -262.51172,52.86523 h 163.64844 v 14.00195 h -160.26953 z m 565.64453,0 H -24.25 l -3.378906,14.00195 H -187.89844 Z M -747.75,459.08789 h 157.85547 v 173.99805 h -157.85742 l 20.99804,-87.00391 z m 559.85156,0 h 157.855471 l -20.996093,86.99414 20.998046,87.00391 H -187.89844 Z m -218.38476,93.45313 c 3.12694,3.55712 6.7672,7.68496 10.32812,11.7246 -40.40343,44.58767 -106.67213,117.18385 -139.02539,149.53711 -2.19859,2.19859 -4.34736,2.53474 -7.56445,1.72657 -3.21706,-0.80822 -7.07855,-3.2142 -10.16797,-6.45118 -3.08942,-3.23691 -5.37642,-7.26039 -6.10742,-10.64843 -0.73096,-3.38808 -0.29227,-5.75063 1.90625,-7.94922 32.45632,-32.4563 105.88747,-98.21994 150.63086,-137.93945 z m -343.88086,90.53906 h 160.26953 v 14.0039 h -163.64844 z m 562.26562,0 h 160.269534 l 3.378906,14.0039 h -163.64844 z m -200.99804,97.23828 10.14257,32.05273 33.61719,-0.25976 -27.34961,19.55078 10.63477,31.89258 -27.04492,-19.97071 -27.04493,19.97071 10.63477,-31.89258 -27.34961,-19.55078 33.61719,0.25976 z"
         style="color:#000000;font-style:normal;font-variant:normal;font-weight:normal;font-stretch:normal;font-size:medium;line-height:normal;font-family:sans-serif;font-variant-ligatures:normal;font-variant-position:normal;font-variant-caps:normal;font-variant-numeric:normal;font-variant-alternates:normal;font-feature-settings:normal;text-indent:0;text-align:start;text-decoration:none;text-decoration-line:none;text-decoration-style:solid;text-decoration-color:#000000;letter-spacing:normal;word-spacing:normal;text-transform:none;writing-mode:lr-tb;direction:ltr;text-orientation:mixed;dominant-baseline:auto;baseline-shift:baseline;text-anchor:start;white-space:normal;shape-padding:0;clip-rule:nonzero;display:inline;overflow:visible;visibility:visible;opacity:1;isolation:auto;mix-blend-mode:normal;color-interpolation:sRGB;color-interpolation-filters:linearRGB;solid-color:#000000;solid-opacity:1;vector-effect:none;fill:#483e37;fill-opacity:1;fill-rule:nonzero;stroke:none;stroke-width:21.03977013;stroke-linecap:butt;stroke-linejoin:miter;stroke-miterlimit:4;stroke-dasharray:none;stroke-dashoffset:0;stroke-opacity:1;color-rendering:auto;image-rendering:auto;shape-rendering:auto;text-rendering:auto;enable-background:accumulate"
         inkscape:connector-curvature="0" />
      <text
         id="text1120"
         y="156.96785"
         x="-192.35669"
         style="font-style:normal;font-variant:normal;font-weight:bold;font-stretch:condensed;font-size:37.8454628px;line-height:1.25;font-family:'Arial Narrow';-inkscape-font-specification:'Arial Narrow, Bold Condensed';font-variant-ligatures:normal;font-variant-caps:normal;font-variant-numeric:normal;font-feature-settings:normal;text-align:start;letter-spacing:0px;word-spacing:0px;writing-mode:lr-tb;text-anchor:start;fill:#483e37;fill-opacity:1;stroke:none;stroke-width:0.55667728"
         xml:space="preserve"><tspan
           style="font-style:normal;font-variant:normal;font-weight:bold;font-stretch:condensed;font-size:37.8454628px;font-family:'Arial Narrow';-inkscape-font-specification:'Arial Narrow, Bold Condensed';font-variant-ligatures:normal;font-variant-caps:normal;font-variant-numeric:normal;font-feature-settings:normal;text-align:start;letter-spacing:0px;writing-mode:lr-tb;text-anchor:start;fill:#483e37;fill-opacity:1;stroke-width:0.55667728"
           y="156.96785"
           x="-192.35669"
           id="tspan1118">20</tspan></text>
      <text
         xml:space="preserve"
         style="font-style:normal;font-variant:normal;font-weight:bold;font-stretch:condensed;font-size:37.8454628px;line-height:1.25;font-family:'Arial Narrow';-inkscape-font-specification:'Arial Narrow, Bold Condensed';font-variant-ligatures:normal;font-variant-caps:normal;font-variant-numeric:normal;font-feature-settings:normal;text-align:start;letter-spacing:0px;word-spacing:0px;writing-mode:lr-tb;text-anchor:start;fill:#483e37;fill-opacity:1;stroke:none;stroke-width:0.55667728"
         x="-49.217106"
         y="156.96785"
         id="text1124"><tspan
           id="tspan1122"
           x="-49.217106"
           y="156.96785"
           style="font-style:normal;font-variant:normal;font-weight:bold;font-stretch:condensed;font-size:37.8454628px;font-family:'Arial Narrow';-inkscape-font-specification:'Arial Narrow, Bold Condensed';font-variant-ligatures:normal;font-variant-caps:normal;font-variant-numeric:normal;font-feature-settings:normal;text-align:start;letter-spacing:0px;writing-mode:lr-tb;text-anchor:start;fill:#483e37;fill-opacity:1;stroke-width:0.55667728">18</tspan></text>
    </g>
    <g
       aria-label="APPLICATION"
       style="font-style:normal;font-variant:normal;font-weight:800;font-stretch:normal;font-size:10.58333302px;line-height:1.25;font-family:Montserrat;-inkscape-font-specification:'Montserrat, Ultra-Bold';font-variant-ligatures:normal;font-variant-caps:normal;font-variant-numeric:normal;font-feature-settings:normal;text-align:start;letter-spacing:2.64583325px;word-spacing:0px;writing-mode:lr-tb;text-anchor:start;fill:#483e37;fill-opacity:1;stroke:none;stroke-width:0.26458332"
       id="g1150"
       transform="translate(0,141.43903)">
      <path
         d="m -299.06027,184.97666 1.46586,1.61381 3.27794,-7.40961 -1.38758,-1.52764 -7.68262,2.56033 1.43739,1.58248 1.4568,-0.53688 2.10628,2.31889 z m 0.12428,-4.30204 2.39525,-0.88887 -1.11441,2.299 z"
         style="font-style:normal;font-variant:normal;font-weight:800;font-stretch:normal;font-size:10.58333302px;font-family:Montserrat;-inkscape-font-specification:'Montserrat, Ultra-Bold';font-variant-ligatures:normal;font-variant-caps:normal;font-variant-numeric:normal;font-feature-settings:normal;text-align:start;writing-mode:lr-tb;text-anchor:start;fill:#483e37;fill-opacity:1;stroke-width:0.26458332"
         id="path1128"
         inkscape:connector-curvature="0" />
      <path
         d="m -287.94857,184.85871 -2.6954,-2.05045 -4.48534,5.89619 1.66778,1.26872 1.17259,-1.54144 1.02763,0.78174 c 1.60881,1.22385 3.25395,1.15888 4.27276,-0.1804 1.02522,-1.3477 0.6488,-2.9505 -0.96002,-4.17436 z m -2.41423,2.96386 -0.92655,-0.70484 1.31357,-1.72675 0.92654,0.70484 c 0.6907,0.52543 0.79256,1.10822 0.37606,1.65573 -0.41009,0.53908 -0.99892,0.59644 -1.68962,0.071 z"
         style="font-style:normal;font-variant:normal;font-weight:800;font-stretch:normal;font-size:10.58333302px;font-family:Montserrat;-inkscape-font-specification:'Montserrat, Ultra-Bold';font-variant-ligatures:normal;font-variant-caps:normal;font-variant-numeric:normal;font-feature-settings:normal;text-align:start;writing-mode:lr-tb;text-anchor:start;fill:#483e37;fill-opacity:1;stroke-width:0.26458332"
         id="path1130"
         inkscape:connector-curvature="0" />
      <path
         d="m -280.30163,189.60272 -3.01708,-1.53842 -3.3653,6.59987 1.86682,0.95189 0.87978,-1.72539 1.15027,0.58652 c 1.80082,0.91825 3.40817,0.56175 4.17257,-0.93736 0.76921,-1.50854 0.11376,-3.01886 -1.68706,-3.93711 z m -1.84867,3.34596 -1.03713,-0.52884 0.98556,-1.93281 1.03712,0.52883 c 0.77312,0.39422 0.977,0.94961 0.66451,1.56245 -0.30769,0.60342 -0.87694,0.76459 -1.65006,0.37037 z"
         style="font-style:normal;font-variant:normal;font-weight:800;font-stretch:normal;font-size:10.58333302px;font-family:Montserrat;-inkscape-font-specification:'Montserrat, Ultra-Bold';font-variant-ligatures:normal;font-variant-caps:normal;font-variant-numeric:normal;font-feature-settings:normal;text-align:start;writing-mode:lr-tb;text-anchor:start;fill:#483e37;fill-opacity:1;stroke-width:0.26458332"
         id="path1132"
         inkscape:connector-curvature="0" />
      <path
         d="m -277.30525,198.99961 5.37151,1.68747 0.498,-1.5852 -3.37234,-1.05943 1.72236,-5.48257 -1.99917,-0.62805 z"
         style="font-style:normal;font-variant:normal;font-weight:800;font-stretch:normal;font-size:10.58333302px;font-family:Montserrat;-inkscape-font-specification:'Montserrat, Ultra-Bold';font-variant-ligatures:normal;font-variant-caps:normal;font-variant-numeric:normal;font-feature-settings:normal;text-align:start;writing-mode:lr-tb;text-anchor:start;fill:#483e37;fill-opacity:1;stroke-width:0.26458332"
         id="path1134"
         inkscape:connector-curvature="0" />
      <path
         d="m -268.53139,201.37397 2.06415,0.36111 1.27666,-7.2975 -2.06415,-0.36111 z"
         style="font-style:normal;font-variant:normal;font-weight:800;font-stretch:normal;font-size:10.58333302px;font-family:Montserrat;-inkscape-font-specification:'Montserrat, Ultra-Bold';font-variant-ligatures:normal;font-variant-caps:normal;font-variant-numeric:normal;font-feature-settings:normal;text-align:start;writing-mode:lr-tb;text-anchor:start;fill:#483e37;fill-opacity:1;stroke-width:0.26458332"
         id="path1136"
         inkscape:connector-curvature="0" />
      <path
         d="m -258.66639,202.56973 c 1.36457,0.0432 2.48041,-0.41919 3.22817,-1.29556 l -1.29468,-1.24807 c -0.48318,0.54591 -1.06409,0.83461 -1.77282,0.81218 -1.21648,-0.0385 -2.03595,-0.9115 -1.99579,-2.18086 0.0402,-1.26937 0.91318,-2.08884 2.12965,-2.05035 0.70873,0.0224 1.27024,0.34725 1.71794,0.92262 l 1.37098,-1.16373 c -0.69086,-0.92189 -1.77525,-1.45387 -3.13981,-1.49704 -2.34833,-0.0743 -4.12308,1.46844 -4.19437,3.72156 -0.0713,2.25312 1.60241,3.90496 3.95073,3.97925 z"
         style="font-style:normal;font-variant:normal;font-weight:800;font-stretch:normal;font-size:10.58333302px;font-family:Montserrat;-inkscape-font-specification:'Montserrat, Ultra-Bold';font-variant-ligatures:normal;font-variant-caps:normal;font-variant-numeric:normal;font-feature-settings:normal;text-align:start;writing-mode:lr-tb;text-anchor:start;fill:#483e37;fill-opacity:1;stroke-width:0.26458332"
         id="path1138"
         inkscape:connector-curvature="0" />
      <path
         d="m -246.53071,201.4577 2.15644,-0.32074 -4.33503,-6.84506 -2.04129,0.30362 -2.14477,7.80883 2.11457,-0.31451 0.364,-1.50931 3.09858,-0.46087 z m -3.50625,-2.49583 0.59337,-2.485 1.2909,2.20475 z"
         style="font-style:normal;font-variant:normal;font-weight:800;font-stretch:normal;font-size:10.58333302px;font-family:Montserrat;-inkscape-font-specification:'Montserrat, Ultra-Bold';font-variant-ligatures:normal;font-variant-caps:normal;font-variant-numeric:normal;font-feature-settings:normal;text-align:start;writing-mode:lr-tb;text-anchor:start;fill:#483e37;fill-opacity:1;stroke-width:0.26458332"
         id="path1140"
         inkscape:connector-curvature="0" />
      <path
         d="m -240.12101,199.82008 1.98926,-0.65877 -1.80663,-5.45538 2.15001,-0.71201 -0.52236,-1.57734 -6.29931,2.08611 0.52235,1.57734 2.16006,-0.71533 z"
         style="font-style:normal;font-variant:normal;font-weight:800;font-stretch:normal;font-size:10.58333302px;font-family:Montserrat;-inkscape-font-specification:'Montserrat, Ultra-Bold';font-variant-ligatures:normal;font-variant-caps:normal;font-variant-numeric:normal;font-feature-settings:normal;text-align:start;writing-mode:lr-tb;text-anchor:start;fill:#483e37;fill-opacity:1;stroke-width:0.26458332"
         id="path1142"
         inkscape:connector-curvature="0" />
      <path
         d="m -232.86294,197.01212 1.88245,-0.9206 -3.25464,-6.65512 -1.88245,0.92059 z"
         style="font-style:normal;font-variant:normal;font-weight:800;font-stretch:normal;font-size:10.58333302px;font-family:Montserrat;-inkscape-font-specification:'Montserrat, Ultra-Bold';font-variant-ligatures:normal;font-variant-caps:normal;font-variant-numeric:normal;font-feature-settings:normal;text-align:start;writing-mode:lr-tb;text-anchor:start;fill:#483e37;fill-opacity:1;stroke-width:0.26458332"
         id="path1144"
         inkscape:connector-curvature="0" />
      <path
         d="m -224.14631,192.15115 c 1.94603,-1.35389 2.44869,-3.68908 1.17941,-5.51348 -1.26928,-1.8244 -3.63354,-2.16501 -5.57957,-0.81111 -1.94603,1.3539 -2.44868,3.68908 -1.17941,5.51348 1.26928,1.8244 3.63354,2.16501 5.57957,0.81111 z m -0.99124,-1.42477 c -0.92089,0.64068 -2.11945,0.45603 -2.8508,-0.59517 -0.73135,-1.05121 -0.48776,-2.2392 0.43313,-2.87988 0.92088,-0.64068 2.11945,-0.45603 2.85079,0.59518 0.73135,1.0512 0.48777,2.23919 -0.43312,2.87987 z"
         style="font-style:normal;font-variant:normal;font-weight:800;font-stretch:normal;font-size:10.58333302px;font-family:Montserrat;-inkscape-font-specification:'Montserrat, Ultra-Bold';font-variant-ligatures:normal;font-variant-caps:normal;font-variant-numeric:normal;font-feature-settings:normal;text-align:start;writing-mode:lr-tb;text-anchor:start;fill:#483e37;fill-opacity:1;stroke-width:0.26458332"
         id="path1146"
         inkscape:connector-curvature="0" />
      <path
         d="m -219.86877,178.45792 2.83618,2.74582 -5.11086,-0.39628 -1.19992,1.2394 5.32258,5.15301 1.42812,-1.47511 -2.83617,-2.74582 5.11086,0.39628 1.19991,-1.2394 -5.32258,-5.15301 z"
         style="font-style:normal;font-variant:normal;font-weight:800;font-stretch:normal;font-size:10.58333302px;font-family:Montserrat;-inkscape-font-specification:'Montserrat, Ultra-Bold';font-variant-ligatures:normal;font-variant-caps:normal;font-variant-numeric:normal;font-feature-settings:normal;text-align:start;writing-mode:lr-tb;text-anchor:start;fill:#483e37;fill-opacity:1;stroke-width:0.26458332"
         id="path1148"
         inkscape:connector-curvature="0" />
    </g>
    <g
       aria-label="KITCHEN HELPER"
       style="font-style:normal;font-variant:normal;font-weight:800;font-stretch:normal;font-size:10.58333302px;line-height:1.25;font-family:Montserrat;-inkscape-font-specification:'Montserrat, Ultra-Bold';font-variant-ligatures:normal;font-variant-caps:normal;font-variant-numeric:normal;font-feature-settings:normal;text-align:start;letter-spacing:1.64306235px;word-spacing:0px;writing-mode:lr-tb;text-anchor:start;fill:#483e37;fill-opacity:1;stroke:none;stroke-width:0.26458332"
       id="g1178"
       transform="translate(0,141.43903)">
      <path
         d="m -302.4721,123.8926 1.20988,-2.11219 -5.16491,0.71269 -1.34242,-4.25717 -1.14675,2.00199 1.24683,4.01947 -2.67238,-1.53075 -1.03103,1.79995 6.42842,3.68224 1.03103,-1.79996 -1.60711,-0.92056 -0.33623,-1.09514 z"
         style="font-style:normal;font-variant:normal;font-weight:800;font-stretch:normal;font-size:10.58333302px;font-family:Montserrat;-inkscape-font-specification:'Montserrat, Ultra-Bold';font-variant-ligatures:normal;font-variant-caps:normal;font-variant-numeric:normal;font-feature-settings:normal;text-align:start;letter-spacing:1.64306235px;writing-mode:lr-tb;text-anchor:start;fill:#483e37;fill-opacity:1;stroke-width:0.26458332"
         id="path1152"
         inkscape:connector-curvature="0" />
      <path
         d="m -299.85832,120.07335 1.28537,-1.65498 -5.85092,-4.54424 -1.28537,1.65497 z"
         style="font-style:normal;font-variant:normal;font-weight:800;font-stretch:normal;font-size:10.58333302px;font-family:Montserrat;-inkscape-font-specification:'Montserrat, Ultra-Bold';font-variant-ligatures:normal;font-variant-caps:normal;font-variant-numeric:normal;font-feature-settings:normal;text-align:start;letter-spacing:1.64306235px;writing-mode:lr-tb;text-anchor:start;fill:#483e37;fill-opacity:1;stroke-width:0.26458332"
         id="path1154"
         inkscape:connector-curvature="0" />
      <path
         d="m -295.44158,114.88555 1.48682,-1.47664 -4.04959,-4.0775 1.60697,-1.59597 -1.17087,-1.17894 -4.70827,4.67605 1.17088,1.17894 1.61447,-1.60343 z"
         style="font-style:normal;font-variant:normal;font-weight:800;font-stretch:normal;font-size:10.58333302px;font-family:Montserrat;-inkscape-font-specification:'Montserrat, Ultra-Bold';font-variant-ligatures:normal;font-variant-caps:normal;font-variant-numeric:normal;font-feature-settings:normal;text-align:start;letter-spacing:1.64306235px;writing-mode:lr-tb;text-anchor:start;fill:#483e37;fill-opacity:1;stroke-width:0.26458332"
         id="path1156"
         inkscape:connector-curvature="0" />
      <path
         d="m -287.44372,108.32149 c 1.11606,-0.78633 1.72935,-1.82689 1.79954,-2.97678 l -1.785,-0.21825 c -0.0576,0.72674 -0.34803,1.3068 -0.92769,1.7152 -0.99495,0.70098 -2.17472,0.49649 -2.90618,-0.54171 -0.73147,-1.0382 -0.52697,-2.21798 0.46797,-2.91897 0.57966,-0.4084 1.22362,-0.48666 1.92736,-0.29632 l 0.39522,-1.75433 c -1.10643,-0.32089 -2.2927,-0.0936 -3.40876,0.69273 -1.92068,1.35321 -2.41048,3.65318 -1.11213,5.49599 1.29835,1.84281 3.62899,2.15564 5.54967,0.80244 z"
         style="font-style:normal;font-variant:normal;font-weight:800;font-stretch:normal;font-size:10.58333302px;font-family:Montserrat;-inkscape-font-specification:'Montserrat, Ultra-Bold';font-variant-ligatures:normal;font-variant-caps:normal;font-variant-numeric:normal;font-feature-settings:normal;text-align:start;letter-spacing:1.64306235px;writing-mode:lr-tb;text-anchor:start;fill:#483e37;fill-opacity:1;stroke-width:0.26458332"
         id="path1158"
         inkscape:connector-curvature="0" />
      <path
         d="m -281.23974,96.293175 1.15682,2.531636 -2.59902,1.187609 -1.15682,-2.531636 -1.90595,0.870914 3.07899,6.738192 1.90595,-0.87091 -1.20081,-2.6279 2.59902,-1.18761 1.2008,2.6279 1.90595,-0.87092 -3.07899,-6.738188 z"
         style="font-style:normal;font-variant:normal;font-weight:800;font-stretch:normal;font-size:10.58333302px;font-family:Montserrat;-inkscape-font-specification:'Montserrat, Ultra-Bold';font-variant-ligatures:normal;font-variant-caps:normal;font-variant-numeric:normal;font-feature-settings:normal;text-align:start;letter-spacing:1.64306235px;writing-mode:lr-tb;text-anchor:start;fill:#483e37;fill-opacity:1;stroke-width:0.26458332"
         id="path1160"
         inkscape:connector-curvature="0" />
      <path
         d="m -271.66173,99.088811 -0.33611,-1.312308 3.1885,-0.816637 -0.38863,-1.517357 -3.1885,0.816637 -0.30985,-1.209784 3.6191,-0.926923 -0.40175,-1.568618 -5.62857,1.441587 1.83809,7.176682 5.76185,-1.475719 -0.40175,-1.568618 z"
         style="font-style:normal;font-variant:normal;font-weight:800;font-stretch:normal;font-size:10.58333302px;font-family:Montserrat;-inkscape-font-specification:'Montserrat, Ultra-Bold';font-variant-ligatures:normal;font-variant-caps:normal;font-variant-numeric:normal;font-feature-settings:normal;text-align:start;letter-spacing:1.64306235px;writing-mode:lr-tb;text-anchor:start;fill:#483e37;fill-opacity:1;stroke-width:0.26458332"
         id="path1162"
         inkscape:connector-curvature="0" />
      <path
         d="m -260.28243,91.457655 0.28481,3.937296 -3.54653,-3.701353 -1.72059,0.124462 0.5345,7.389026 2.04781,-0.148132 -0.28481,-3.937296 3.54654,3.701353 1.72059,-0.124462 -0.5345,-7.389026 z"
         style="font-style:normal;font-variant:normal;font-weight:800;font-stretch:normal;font-size:10.58333302px;font-family:Montserrat;-inkscape-font-specification:'Montserrat, Ultra-Bold';font-variant-ligatures:normal;font-variant-caps:normal;font-variant-numeric:normal;font-feature-settings:normal;text-align:start;letter-spacing:1.64306235px;writing-mode:lr-tb;text-anchor:start;fill:#483e37;fill-opacity:1;stroke-width:0.26458332"
         id="path1164"
         inkscape:connector-curvature="0" />
      <path
         d="m -243.44874,93.034862 -0.58301,2.721674 -2.79412,-0.598526 0.58301,-2.721674 -2.04901,-0.438919 -1.55174,7.243999 2.04902,0.438919 0.60517,-2.82516 2.79412,0.598526 -0.60518,2.825159 2.04902,0.43892 1.55173,-7.243999 z"
         style="font-style:normal;font-variant:normal;font-weight:800;font-stretch:normal;font-size:10.58333302px;font-family:Montserrat;-inkscape-font-specification:'Montserrat, Ultra-Bold';font-variant-ligatures:normal;font-variant-caps:normal;font-variant-numeric:normal;font-feature-settings:normal;text-align:start;letter-spacing:1.64306235px;writing-mode:lr-tb;text-anchor:start;fill:#483e37;fill-opacity:1;stroke-width:0.26458332"
         id="path1166"
         inkscape:connector-curvature="0" />
      <path
         d="m -237.43364,101.00226 0.51487,-1.253006 3.04442,1.250986 0.59532,-1.448792 -3.04442,-1.250983 0.47465,-1.155116 3.45556,1.419927 0.61544,-1.497735 -5.37423,-2.208328 -2.81572,6.852377 5.50149,2.26062 0.61543,-1.49773 z"
         style="font-style:normal;font-variant:normal;font-weight:800;font-stretch:normal;font-size:10.58333302px;font-family:Montserrat;-inkscape-font-specification:'Montserrat, Ultra-Bold';font-variant-ligatures:normal;font-variant-caps:normal;font-variant-numeric:normal;font-feature-settings:normal;text-align:start;letter-spacing:1.64306235px;writing-mode:lr-tb;text-anchor:start;fill:#483e37;fill-opacity:1;stroke-width:0.26458332"
         id="path1168"
         inkscape:connector-curvature="0" />
      <path
         d="m -231.97725,105.28788 4.80834,2.92925 0.86446,-1.419 -3.01877,-1.83904 2.98982,-4.90776 -1.78957,-1.090212 z"
         style="font-style:normal;font-variant:normal;font-weight:800;font-stretch:normal;font-size:10.58333302px;font-family:Montserrat;-inkscape-font-specification:'Montserrat, Ultra-Bold';font-variant-ligatures:normal;font-variant-caps:normal;font-variant-numeric:normal;font-feature-settings:normal;text-align:start;letter-spacing:1.64306235px;writing-mode:lr-tb;text-anchor:start;fill:#483e37;fill-opacity:1;stroke-width:0.26458332"
         id="path1170"
         inkscape:connector-curvature="0" />
      <path
         d="m -217.7657,106.28181 -2.56318,-2.21351 -4.84205,5.60695 1.58596,1.36961 1.26585,-1.46582 0.97722,0.8439 c 1.52989,1.32119 3.17589,1.35828 4.27573,0.0847 1.10675,-1.28159 0.83037,-2.90464 -0.69953,-4.22583 z m -2.59324,2.80858 -0.88109,-0.7609 1.41803,-1.64203 0.88109,0.76089 c 0.65682,0.56721 0.72237,1.1552 0.27275,1.67584 -0.4427,0.51264 -1.03396,0.53341 -1.69078,-0.0338 z"
         style="font-style:normal;font-variant:normal;font-weight:800;font-stretch:normal;font-size:10.58333302px;font-family:Montserrat;-inkscape-font-specification:'Montserrat, Ultra-Bold';font-variant-ligatures:normal;font-variant-caps:normal;font-variant-numeric:normal;font-feature-settings:normal;text-align:start;letter-spacing:1.64306235px;writing-mode:lr-tb;text-anchor:start;fill:#483e37;fill-opacity:1;stroke-width:0.26458332"
         id="path1172"
         inkscape:connector-curvature="0" />
      <path
         d="m -215.73536,116.57428 1.04787,-0.85854 2.08599,2.54599 1.21159,-0.99269 -2.08599,-2.54599 0.96601,-0.79147 2.3677,2.88982 1.25252,-1.02623 -3.68234,-4.49437 -5.73052,4.69516 3.76953,4.60079 1.25253,-1.02622 z"
         style="font-style:normal;font-variant:normal;font-weight:800;font-stretch:normal;font-size:10.58333302px;font-family:Montserrat;-inkscape-font-specification:'Montserrat, Ultra-Bold';font-variant-ligatures:normal;font-variant-caps:normal;font-variant-numeric:normal;font-feature-settings:normal;text-align:start;letter-spacing:1.64306235px;writing-mode:lr-tb;text-anchor:start;fill:#483e37;fill-opacity:1;stroke-width:0.26458332"
         id="path1174"
         inkscape:connector-curvature="0" />
      <path
         d="m -210.68634,126.91146 1.10309,1.95378 1.24181,-2.53631 c 0.83975,0.58325 1.80033,0.6486 2.74957,0.11267 1.47455,-0.83252 1.76254,-2.45355 0.76872,-4.21379 l -1.66503,-2.9491 -6.45115,3.64225 1.03024,1.82476 1.71416,-0.9678 0.56195,0.99532 z m 4.05382,-2.31305 c -0.58982,0.33301 -1.15335,0.15287 -1.58002,-0.60283 l -0.57235,-1.01375 1.88926,-1.06667 0.57236,1.01376 c 0.42666,0.7557 0.28979,1.33128 -0.30925,1.66949 z"
         style="font-style:normal;font-variant:normal;font-weight:800;font-stretch:normal;font-size:10.58333302px;font-family:Montserrat;-inkscape-font-specification:'Montserrat, Ultra-Bold';font-variant-ligatures:normal;font-variant-caps:normal;font-variant-numeric:normal;font-feature-settings:normal;text-align:start;letter-spacing:1.64306235px;writing-mode:lr-tb;text-anchor:start;fill:#483e37;fill-opacity:1;stroke-width:0.26458332"
         id="path1176"
         inkscape:connector-curvature="0" />
    </g>
  </g>
</svg>
